<?xml version="1.0" standalone="no"?>
<!DOCTYPE svg PUBLIC "-//W3C//DTD SVG 20010904//EN"
 "http://www.w3.org/TR/2001/REC-SVG-20010904/DTD/svg10.dtd">
<svg version="1.0" xmlns="http://www.w3.org/2000/svg"
 width="300.000000pt" height="300.000000pt" viewBox="0 0 300.000000 300.000000"
 preserveAspectRatio="xMidYMid meet">
<metadata>
Created by potrace 1.10, written by Peter Selinger 2001-2011
</metadata>
<g transform="translate(0.000000,300.000000) scale(0.100000,-0.100000)"
fill="#000000" stroke="none">
<path d="M1365 2706 c-73 -17 -181 -64 -229 -101 -41 -31 -104 -113 -136 -175
-36 -71 -50 -137 -50 -245 0 -275 128 -460 370 -535 54 -17 106 -40 116 -51
l18 -20 8 22 c6 15 12 19 19 12 13 -13 12 -1419 -1 -1442 -6 -10 -10 231 -10
679 0 433 -4 701 -10 710 -6 10 -9 -232 -7 -695 l2 -710 23 -3 22 -3 0 703 0
704 33 36 c23 25 49 40 92 53 159 46 253 112 324 230 73 120 94 236 67 374
-32 170 -111 288 -256 384 -112 73 -267 102 -395 73z m270 -51 c112 -39 242
-146 277 -225 11 -24 24 -47 29 -51 6 -3 12 -21 13 -40 6 -66 6 -65 15 -51 13
22 22 -13 28 -108 7 -110 -14 -193 -69 -278 -66 -101 -130 -152 -244 -196 -55
-21 -116 -46 -138 -57 -24 -12 -44 -15 -54 -10 -8 5 -23 6 -34 3 -10 -2 -26 2
-36 10 -9 9 -42 21 -72 28 -76 18 -155 64 -234 136 -90 83 -111 134 -137 327
-15 108 6 209 58 286 21 31 40 60 42 65 2 4 24 28 50 52 59 56 169 110 261
128 51 9 196 -2 245 -19z"/>
<path d="M1593 2411 c-53 -25 -98 -97 -89 -143 28 -142 184 -176 271 -58 83
112 -52 261 -182 201z m132 -37 c70 -45 54 -159 -28 -197 -67 -32 -138 2 -158
75 -27 104 93 183 186 122z"/>
<path d="M1613 2343 c4 -3 2 -12 -4 -19 -8 -9 -5 -11 10 -7 15 4 21 1 21 -10
0 -8 3 -23 6 -32 4 -9 3 -15 -2 -14 -23 4 -45 -2 -39 -11 3 -6 15 -6 30 0 15
6 27 6 30 0 8 -13 -4 -32 -15 -25 -4 3 -10 -2 -13 -10 -8 -19 24 -7 38 14 10
16 12 22 14 43 0 6 10 3 24 -8 l22 -19 -20 24 c-19 23 -19 24 -1 17 16 -5 17
-4 6 9 -11 13 -15 13 -22 3 -7 -9 -8 -6 -5 10 3 12 1 22 -5 22 -5 0 -9 -10 -8
-22 4 -44 1 -50 -14 -36 -8 7 -12 17 -9 21 3 4 -1 14 -7 22 -10 12 -10 15 1
15 11 0 11 2 -1 10 -17 11 -47 14 -37 3z"/>
<path d="M1252 2400 c-51 -32 -74 -76 -69 -137 3 -45 9 -58 39 -87 20 -20 48
-38 62 -42 87 -22 186 60 186 153 0 98 -131 166 -218 113z m160 -49 c34 -38
37 -85 8 -134 -35 -59 -108 -75 -165 -35 -61 42 -64 128 -5 181 29 26 38 29
83 24 41 -3 56 -11 79 -36z"/>
<path d="M1290 2336 c0 -8 5 -18 10 -21 21 -13 9 -25 -26 -25 -19 0 -33 -4
-29 -9 6 -10 39 -8 68 4 13 5 15 11 7 20 -8 10 -8 15 1 20 8 6 7 10 -2 16 -20
13 -29 11 -29 -5z"/>
<path d="M1352 2318 c2 -26 8 -33 26 -34 12 -1 22 3 22 9 0 5 -9 7 -20 4 -16
-4 -19 -1 -16 24 2 16 -1 29 -6 29 -5 0 -8 -15 -6 -32z"/>
<path d="M1323 2268 c1 -7 6 -16 10 -19 12 -9 -3 -37 -21 -42 -13 -4 -13 -5 3
-6 12 0 25 9 32 24 6 14 7 25 2 25 -5 0 -9 7 -9 15 0 8 -4 15 -10 15 -5 0 -9
-6 -7 -12z"/>
<path d="M1275 2248 c17 -6 34 -16 38 -22 6 -7 7 -4 3 7 -3 10 -6 21 -6 23 0
2 -15 4 -32 3 l-33 -1 30 -10z"/>
<path d="M1566 2077 c-63 -19 -74 -20 -140 -7 -133 25 -148 24 -174 -3 -39
-42 -27 -123 24 -168 75 -66 228 -89 322 -49 55 24 127 93 137 132 9 35 -10
76 -47 98 -39 23 -34 24 -122 -3z m-166 -31 c9 -1 20 -5 26 -9 17 -10 105 -1
154 17 61 21 77 20 105 -9 35 -34 31 -66 -12 -113 -57 -61 -95 -76 -189 -77
-71 0 -88 4 -139 30 -68 36 -86 59 -87 115 -1 56 19 70 81 57 25 -5 53 -10 61
-11z"/>
<path d="M1616 2025 c-15 -16 -26 -39 -26 -53 0 -30 12 -22 17 11 2 12 13 30
24 40 12 10 19 20 16 23 -3 4 -17 -6 -31 -21z"/>
<path d="M1350 2030 c0 -5 -7 -7 -15 -4 -11 5 -13 2 -9 -10 3 -9 11 -13 17 -9
6 4 8 0 4 -10 -3 -10 -2 -17 3 -17 6 0 10 14 10 30 0 17 -2 30 -5 30 -3 0 -5
-4 -5 -10z"/>
<path d="M1655 2020 c-3 -5 -3 -15 1 -22 5 -7 2 -9 -8 -6 -10 4 -18 -4 -27
-28 -8 -22 -17 -32 -24 -27 -8 4 -7 1 1 -9 9 -11 9 -18 2 -21 -6 -3 -5 -4 2
-3 7 1 14 12 16 24 2 12 8 22 14 22 6 0 8 3 5 7 -4 3 2 13 13 20 11 8 17 19
14 25 -4 6 0 14 7 19 9 6 10 9 2 9 -6 0 -15 -4 -18 -10z"/>
<path d="M1417 2007 c2 -4 -1 -14 -7 -22 -7 -8 -9 -15 -5 -15 4 0 2 -7 -5 -16
-8 -8 -9 -14 -4 -13 20 3 26 -2 16 -14 -8 -10 -5 -13 16 -14 21 -1 23 0 9 6
-10 4 -18 10 -18 14 1 4 1 8 0 10 -7 22 -4 37 7 41 7 3 16 1 20 -5 4 -6 11 -6
20 2 7 6 20 9 27 6 8 -3 19 -2 26 3 9 5 4 9 -13 12 -15 3 -29 1 -32 -3 -8 -14
-37 -10 -31 4 3 7 -3 13 -13 13 -10 0 -16 -4 -13 -9z"/>
<path d="M1527 1974 c-10 -13 -16 -28 -12 -33 3 -5 1 -13 -5 -16 -6 -4 -10 -3
-9 2 5 20 -14 41 -33 38 -33 -7 -34 -15 -2 -15 26 -1 27 -2 11 -14 -16 -12
-16 -14 -1 -20 29 -11 53 -6 68 15 8 12 18 19 23 16 5 -3 9 4 10 16 0 12 -1
16 -4 10 -3 -7 -9 -13 -14 -13 -6 0 -8 4 -5 8 2 4 2 13 -2 19 -4 7 -14 2 -25
-13z"/>
</g>
</svg>
